<svg xmlns="http://www.w3.org/2000/svg" viewBox="0 0 200 200" width="200" height="200">
  <!-- Placeholder: Neutral sitting cat -->
  <!-- Ears -->
  <polygon points="55,70 70,30 85,70" fill="#f5a623" stroke="#2D2A26" stroke-width="3" stroke-linejoin="round"/>
  <polygon points="115,70 130,30 145,70" fill="#f5a623" stroke="#2D2A26" stroke-width="3" stroke-linejoin="round"/>
  <!-- Inner ears -->
  <polygon points="62,68 70,40 78,68" fill="#f8c471"/>
  <polygon points="122,68 130,40 138,68" fill="#f8c471"/>
  <!-- Head -->
  <ellipse cx="100" cy="90" rx="50" ry="40" fill="#f5a623" stroke="#2D2A26" stroke-width="3"/>
  <!-- Eyes -->
  <ellipse cx="82" cy="85" rx="8" ry="9" fill="white" stroke="#2D2A26" stroke-width="2"/>
  <ellipse cx="118" cy="85" rx="8" ry="9" fill="white" stroke="#2D2A26" stroke-width="2"/>
  <ellipse cx="82" cy="85" rx="4" ry="6" fill="#2D2A26"/>
  <ellipse cx="118" cy="85" rx="4" ry="6" fill="#2D2A26"/>
  <!-- Nose -->
  <polygon points="100,96 96,102 104,102" fill="#e8838a"/>
  <!-- Mouth -->
  <path d="M96,102 Q100,108 104,102" fill="none" stroke="#2D2A26" stroke-width="2" stroke-linecap="round"/>
  <!-- Whiskers -->
  <line x1="50" y1="95" x2="78" y2="98" stroke="#2D2A26" stroke-width="1.5"/>
  <line x1="50" y1="102" x2="78" y2="102" stroke="#2D2A26" stroke-width="1.5"/>
  <line x1="122" y1="98" x2="150" y2="95" stroke="#2D2A26" stroke-width="1.5"/>
  <line x1="122" y1="102" x2="150" y2="102" stroke="#2D2A26" stroke-width="1.5"/>
  <!-- Body -->
  <ellipse cx="100" cy="155" rx="40" ry="35" fill="#f5a623" stroke="#2D2A26" stroke-width="3"/>
  <!-- Paws -->
  <ellipse cx="80" cy="180" rx="12" ry="8" fill="#f8c471" stroke="#2D2A26" stroke-width="2"/>
  <ellipse cx="120" cy="180" rx="12" ry="8" fill="#f8c471" stroke="#2D2A26" stroke-width="2"/>
  <!-- Tail -->
  <path d="M140,155 Q170,140 160,120" fill="none" stroke="#f5a623" stroke-width="8" stroke-linecap="round"/>
  <path d="M140,155 Q170,140 160,120" fill="none" stroke="#2D2A26" stroke-width="3" stroke-linecap="round" opacity="0.3"/>
</svg>
